<?xml version="1.0" encoding="UTF-8" standalone="no"?>
<!-- Created with Inkscape (http://www.inkscape.org/) -->

<svg
   xmlns:dc="http://purl.org/dc/elements/1.1/"
   xmlns:cc="http://creativecommons.org/ns#"
   xmlns:rdf="http://www.w3.org/1999/02/22-rdf-syntax-ns#"
   xmlns:svg="http://www.w3.org/2000/svg"
   xmlns="http://www.w3.org/2000/svg"
   xmlns:sodipodi="http://sodipodi.sourceforge.net/DTD/sodipodi-0.dtd"
   xmlns:inkscape="http://www.inkscape.org/namespaces/inkscape"
   width="80mm"
   height="48.599998mm"
   viewBox="0 0 80 48.599998"
   version="1.1"
   id="svg2420"
   inkscape:version="0.92.3 (2405546, 2018-03-11)"
   sodipodi:docname="sisoyconsumidor.svg">
  <defs
     id="defs2414" />
  <sodipodi:namedview
     id="base"
     pagecolor="#ffffff"
     bordercolor="#666666"
     borderopacity="1.0"
     inkscape:pageopacity="0.0"
     inkscape:pageshadow="2"
     inkscape:zoom="3.959798"
     inkscape:cx="180.06433"
     inkscape:cy="99.677437"
     inkscape:document-units="mm"
     inkscape:current-layer="layer1"
     showgrid="false"
     inkscape:window-width="1613"
     inkscape:window-height="1022"
     inkscape:window-x="67"
     inkscape:window-y="0"
     inkscape:window-maximized="1" />
  <metadata
     id="metadata2417">
    <rdf:RDF>
      <cc:Work
         rdf:about="">
        <dc:format>image/svg+xml</dc:format>
        <dc:type
           rdf:resource="http://purl.org/dc/dcmitype/StillImage" />
        <dc:title></dc:title>
      </cc:Work>
    </rdf:RDF>
  </metadata>
  <g
     inkscape:label="Calque 1"
     inkscape:groupmode="layer"
     id="layer1"
     transform="translate(0,-248.4)">
    <g
       id="g35"
       transform="matrix(2.0056995,0,0,1.9636778,-9.095729,-292.39785)">
      <g
         transform="matrix(0.68853622,0,0,0.55002222,27.490516,127.18767)"
         id="g932">
        <g
           id="g1705"
           transform="matrix(0.74073933,0,0,0.97869969,-46.323504,48.039854)">
          <path
             sodipodi:nodetypes="cssccccscccssc"
             inkscape:connector-curvature="0"
             id="path1530"
             d="m 36.593332,256.63035 c 0,0 -3.791622,-0.19862 -4.008265,-0.01 -3.114474,2.7139 -5.487549,-3.424 -3.357019,-5.19908 0.378235,-0.31514 0.948083,-0.28303 1.152352,-0.49605 -0.622252,-2.17173 1.799105,-2.95709 2.445653,-4.32219 0.434779,-1.30074 -0.23751,-3.02174 1.462038,-3.0066 1.112299,0.0766 1.542652,2.02882 1.391083,3.48351 -0.24839,0.9156 -0.599219,2.44025 -0.443765,2.20872 0.297782,-0.44351 0.828904,-0.4919 1.776223,-0.73888 0.986791,-0.24698 1.920565,-0.70185 2.368298,0.0703 0.33675,1.77356 -0.548709,1.60939 -1.847102,2.00741 -1.522348,0.29236 -2.08351,0.64293 -2.480051,-0.28991 -0.121796,-0.28652 0.01441,-0.94044 0.494182,-1.26932 0.52041,-0.35673 1.395773,-0.38242 1.464673,-0.51845"
             style="fill:#cc8d0c;fill-opacity:1;stroke:#000000;stroke-width:0.51277763;stroke-linecap:butt;stroke-linejoin:miter;stroke-miterlimit:4;stroke-dasharray:none;stroke-opacity:1" />
          <path
             sodipodi:nodetypes="csccc"
             inkscape:connector-curvature="0"
             id="path1532"
             d="m 38.340619,252.57394 c -1.676425,0.57622 -2.483247,0.41453 -2.65536,-0.30257 -0.274606,-1.14412 0.504236,-1.156 1.847569,-1.64376 1.843125,-0.43431 2.383888,-0.7663 2.933813,0.0955 0.17607,1.60825 -0.868378,1.40363 -2.126022,1.85088 z"
             style="fill:#cc8d0c;fill-opacity:1;stroke:#000000;stroke-width:0.51277763;stroke-linecap:butt;stroke-linejoin:miter;stroke-miterlimit:4;stroke-dasharray:none;stroke-opacity:1" />
          <path
             sodipodi:nodetypes="csccc"
             inkscape:connector-curvature="0"
             id="path1532-2"
             d="m 38.67446,254.30874 c -1.516654,0.50654 -2.18454,0.2097 -2.34025,-0.42068 -0.248435,-1.00576 0.593743,-1.00883 2.006409,-1.31412 1.753934,-0.2895 1.744682,-0.61993 2.063648,0.24618 0.15929,1.41375 -0.592021,1.09545 -1.729807,1.48862 z"
             style="fill:#cc8d0c;fill-opacity:1;stroke:#000000;stroke-width:0.51277763;stroke-linecap:butt;stroke-linejoin:miter;stroke-miterlimit:4;stroke-dasharray:none;stroke-opacity:1" />
          <path
             sodipodi:nodetypes="csccc"
             inkscape:connector-curvature="0"
             id="path1532-9"
             d="m 38.62242,256.35929 c -1.404179,0.4705 -2.041516,-0.0581 -2.185678,-0.64359 -0.230012,-0.93422 0.304946,-0.79437 1.430127,-1.19265 0.807591,-0.21431 2.010585,-0.62156 2.305896,0.18293 0.147477,1.31319 -0.496937,1.28811 -1.550345,1.65331 z"
             style="fill:#cc8d0c;fill-opacity:1;stroke:#000000;stroke-width:0.51277763;stroke-linecap:butt;stroke-linejoin:miter;stroke-miterlimit:4;stroke-dasharray:none;stroke-opacity:1" />
          <path
             sodipodi:nodetypes="cc"
             inkscape:connector-curvature="0"
             id="path1585"
             d="m 31.509831,253.39197 c 2.124906,1.85076 4.638186,-0.21164 3.572564,-2.93982"
             style="fill:#cc8d0c;fill-opacity:1;stroke:#000000;stroke-width:0.51277763;stroke-linecap:butt;stroke-linejoin:miter;stroke-miterlimit:4;stroke-dasharray:none;stroke-opacity:1" />
          <path
             sodipodi:nodetypes="cc"
             inkscape:connector-curvature="0"
             id="path1585-0"
             d="m 31.708968,255.29142 c 0.673552,1.87987 3.410118,2.8155 5.13556,1.10608"
             style="fill:#cc8d0c;fill-opacity:1;stroke:#000000;stroke-width:0.51277763;stroke-linecap:butt;stroke-linejoin:miter;stroke-miterlimit:4;stroke-dasharray:none;stroke-opacity:1" />
        </g>
      </g>
      <path
         sodipodi:nodetypes="cccscccccc"
         inkscape:connector-curvature="0"
         id="path919"
         d="m 6.7090773,293.03125 c 12.2842257,3.2128 12.2842257,3.02381 12.2842257,3.02381 v -0.47247 c 0.935443,-1.22405 2.944931,0.23691 2.973623,-0.0988 0.324208,-3.79318 -0.611271,-14.35881 -0.611271,-14.35881 h -0.09449 C 15.591522,280.8415 8.0319983,278.29016 8.0319983,278.29016 v 0 c 0.283482,4.63021 -1.322917,14.74107 -1.322917,14.74107 z"
         style="fill:none;stroke:#000000;stroke-width:0.26458332px;stroke-linecap:butt;stroke-linejoin:miter;stroke-opacity:1" />
      <path
         inkscape:connector-curvature="0"
         id="path921"
         d="m 18.993303,296.05506 c 2.362352,-14.93008 2.362352,-14.93008 2.362352,-14.93008"
         style="fill:none;stroke:#000000;stroke-width:0.26458332px;stroke-linecap:butt;stroke-linejoin:miter;stroke-opacity:1" />
      <path
         inkscape:connector-curvature="0"
         id="path923"
         d="m 17.386904,282.35343 c 0,0 -8.3154757,-1.7009 -4.535714,-0.28348 3.779762,1.41741 4.535714,0.28348 4.535714,0.28348 z"
         style="fill:none;stroke:#000000;stroke-width:0.26458332px;stroke-linecap:butt;stroke-linejoin:miter;stroke-opacity:1" />
    </g>
    <g
       id="g985"
       transform="matrix(1.78178,0,0,1.7429393,89.313461,-198.00544)">
      <ellipse
         ry="8.6382751"
         rx="8.8272638"
         cy="269.45499"
         cx="-18.757071"
         id="path955"
         style="opacity:1;vector-effect:none;fill:none;fill-opacity:1;fill-rule:nonzero;stroke:#170000;stroke-width:0.88085908;stroke-linecap:butt;stroke-linejoin:miter;stroke-miterlimit:4;stroke-dasharray:none;stroke-dashoffset:0;stroke-opacity:1;paint-order:markers stroke fill" />
      <ellipse
         ry="7.2452254"
         rx="7.3800116"
         cy="269.4361"
         cx="-18.727644"
         id="path955-8"
         style="opacity:1;vector-effect:none;fill:#000000;fill-opacity:1;fill-rule:nonzero;stroke:#000000;stroke-width:0.73762268;stroke-linecap:butt;stroke-linejoin:miter;stroke-miterlimit:4;stroke-dasharray:none;stroke-dashoffset:0;stroke-opacity:1;paint-order:markers stroke fill" />
      <path
         sodipodi:nodetypes="ccccc"
         inkscape:connector-curvature="0"
         id="path972"
         d="m -22.972842,271.4223 c -1.806636,-1.33449 -1.59319,-5.13128 0.79659,-5.19114 2.367601,-0.0328 2.871976,3.85471 1.207846,5.26046 -0.82029,0.78752 0.419438,7.89142 -1.032734,7.93502 -1.472949,-0.006 -0.09826,-7.14449 -0.971702,-8.00434 z"
         style="fill:#ffffff;fill-opacity:1;stroke:#000000;stroke-width:0.26458332px;stroke-linecap:butt;stroke-linejoin:miter;stroke-opacity:1" />
      <path
         inkscape:connector-curvature="0"
         id="path976"
         d="m -23.529018,268.2171 c -0.14174,1.6064 0.755954,2.45685 0.755954,2.45685 v 0"
         style="fill:none;stroke:#000000;stroke-width:0.26458332px;stroke-linecap:butt;stroke-linejoin:miter;stroke-opacity:1" />
      <path
         sodipodi:nodetypes="ccccccccscsc"
         inkscape:connector-curvature="0"
         id="path978"
         d="m -14.141384,266.58023 -0.751007,-0.0165 c -0.02479,4.31781 -0.113935,4.3392 -0.139561,0.0117 l -0.709772,0.001 c 0.04554,4.26294 -0.285376,4.33484 -0.251648,10e-4 l -0.724614,8.3e-4 c 0.0099,4.3612 -0.122704,4.20614 -0.192641,0.0191 l -0.694639,-0.0158 c -0.04547,3.98571 -0.221682,5.2827 1.045075,5.50076 0.168692,0.0291 -0.441903,7.58017 0.535179,7.56003 1.044324,0.0203 0.559236,-7.48173 0.712238,-7.50719 1.342498,-0.22344 1.030411,-1.8944 1.17139,-5.72843"
         style="fill:#ffffff;fill-opacity:1;stroke:#000000;stroke-width:0.33499074px;stroke-linecap:butt;stroke-linejoin:miter;stroke-opacity:1" />
    </g>
  </g>
</svg>
